<svg data-v-0dd9719b="" version="1.0" xmlns="http://www.w3.org/2000/svg" xmlns:xlink="http://www.w3.org/1999/xlink" width="100%" height="100%" viewBox="0 0 340.000000 250.000000" preserveAspectRatio="xMidYMid meet" color-interpolation-filters="sRGB" style="margin: auto;"> <rect data-v-0dd9719b="" x="0" y="0" width="100%" height="100%" fill="#fff" fill-opacity="1" class="background"></rect> <rect data-v-0dd9719b="" x="0" y="0" width="100%" height="100%" fill="url(#watermark)" fill-opacity="1" class="watermarklayer"></rect> <g data-v-0dd9719b="" fill="#ed1c24" class="icon-text-wrapper icon-svg-group iconsvg" transform="translate(47.904998779296875,95.97278022766113)"><g class="iconsvg-imagesvg" transform="translate(0,0.4538841247558594)"><g><rect fill="#ed1c24" fill-opacity="0" stroke-width="2" x="0" y="0" width="60" height="57.14666692065185" class="image-rect"></rect> <svg x="0" y="0" width="60" height="57.14666692065185" filtersec="colorsb9929615420" class="image-svg-svg primary" style="overflow: visible;"><svg xmlns="http://www.w3.org/2000/svg" viewBox="-1.7710703611373901 -2.1329503059387207 160.5571746826172 152.92247009277344"><g><g><circle cx="78.77" cy="5.14" r="5.14" transform="rotate(-45 78.762 5.146)" fill="#ed1c24"></circle><circle cx="86.04" cy="12.42" r="4.8" transform="rotate(-45 86.044 12.42)" fill="#ed1c24"></circle><circle cx="93.32" cy="19.69" r="4.46" transform="rotate(-45 93.315 19.688)" fill="#ed1c24"></circle><circle cx="100.59" cy="26.97" r="4.12" transform="rotate(-45 100.593 26.973)" fill="#ed1c24"></circle><circle cx="107.87" cy="34.24" r="3.77" transform="rotate(-45 107.863 34.242)" fill="#ed1c24"></circle><circle cx="71.49" cy="12.42" r="4.8" transform="rotate(-45 71.493 12.417)" fill="#ed1c24"></circle><circle cx="78.77" cy="19.69" r="4.46" transform="rotate(-45 78.776 19.69)" fill="#ed1c24"></circle><circle cx="86.04" cy="26.97" r="4.12" transform="rotate(-45 86.042 26.97)" fill="#ed1c24"></circle><circle cx="93.32" cy="34.24" r="3.77" transform="rotate(-45 93.312 34.239)" fill="#ed1c24"></circle><circle cx="100.59" cy="41.52" r="3.43" transform="rotate(-45 100.595 41.512)" fill="#ed1c24"></circle><circle cx="64.22" cy="19.69" r="4.46" transform="rotate(-45 64.22 19.7)" fill="#ed1c24"></circle><circle cx="71.49" cy="26.97" r="4.12" transform="rotate(-45 71.49 26.968)" fill="#ed1c24"></circle><circle cx="78.77" cy="34.24" r="3.77" transform="rotate(-45 78.773 34.241)" fill="#ed1c24"></circle><circle cx="86.04" cy="41.52" r="3.43" transform="rotate(-45 86.044 41.51)" fill="#ed1c24"></circle><circle cx="93.32" cy="48.79" r="3.09" transform="rotate(-45 93.322 48.795)" fill="#ed1c24"></circle><circle cx="56.94" cy="26.97" r="4.12" transform="rotate(-45 56.94 26.965)" fill="#ed1c24"></circle><circle cx="64.22" cy="34.24" r="3.77" transform="rotate(-45 64.222 34.238)" fill="#ed1c24"></circle><circle cx="71.49" cy="41.52" r="3.43" transform="rotate(-45 71.488 41.519)" fill="#ed1c24"></circle><circle cx="78.77" cy="48.79" r="3.09" transform="rotate(-45 78.77 48.792)" fill="#ed1c24"></circle><circle cx="86.04" cy="56.06" r="2.74" transform="rotate(-45 86.041 56.06)" fill="#ed1c24"></circle><circle cx="49.67" cy="34.24" r="3.77" transform="rotate(-45 49.67 34.236)" fill="#ed1c24"></circle><circle cx="56.94" cy="41.52" r="3.43" transform="rotate(-45 56.949 41.521)" fill="#ed1c24"></circle><circle cx="64.22" cy="48.79" r="3.09" transform="rotate(-45 64.22 48.79)" fill="#ed1c24"></circle><circle cx="71.49" cy="56.06" r="2.74" transform="rotate(-45 71.49 56.058)" fill="#ed1c24"></circle><circle cx="78.77" cy="63.34" r="2.4" transform="rotate(-45 78.768 63.343)" fill="#ed1c24"></circle><circle cx="5.14" cy="58.09" r="5.14" transform="rotate(-27 5.152 58.088)" fill="#f7941d"></circle><circle cx="14.31" cy="53.42" r="4.8" transform="rotate(-27 14.313 53.415)" fill="#f7941d"></circle><circle cx="23.48" cy="48.75" r="4.46" transform="rotate(-27 23.475 48.742)" fill="#f7941d"></circle><circle cx="32.64" cy="44.08" r="4.12" transform="rotate(-27 32.652 44.095)" fill="#f7941d"></circle><circle cx="41.81" cy="39.41" r="3.77" transform="rotate(-27 41.814 39.423)" fill="#f7941d"></circle><circle cx="9.82" cy="67.26" r="4.8" transform="rotate(-27 9.82 67.27)" fill="#f7941d"></circle><circle cx="18.98" cy="62.59" r="4.46" transform="rotate(-27 18.981 62.598)" fill="#f7941d"></circle><circle cx="28.15" cy="57.92" r="4.12" transform="rotate(-27 28.143 57.925)" fill="#f7941d"></circle><circle cx="37.31" cy="53.25" r="3.77" transform="rotate(-27 37.304 53.252)" fill="#f7941d"></circle><circle cx="46.48" cy="48.58" r="3.43" transform="rotate(-27 46.487 48.584)" fill="#f7941d"></circle><circle cx="14.49" cy="76.43" r="4.46" transform="rotate(-27 14.492 76.432)" fill="#f7941d"></circle><circle cx="23.65" cy="71.76" r="4.12" transform="rotate(-27 23.654 71.76)" fill="#f7941d"></circle><circle cx="32.82" cy="67.09" r="3.77" transform="rotate(-27 32.816 67.087)" fill="#f7941d"></circle><circle cx="41.98" cy="62.42" r="3.43" transform="rotate(-27 41.977 62.414)" fill="#f7941d"></circle><circle cx="51.15" cy="57.74" r="3.09" transform="rotate(-27 51.16 57.746)" fill="#f7941d"></circle><circle cx="19.16" cy="85.59" r="4.12" transform="rotate(-27 19.165 85.594)" fill="#f7941d"></circle><circle cx="28.32" cy="80.92" r="3.77" transform="rotate(-27 28.327 80.921)" fill="#f7941d"></circle><circle cx="37.49" cy="76.25" r="3.43" transform="rotate(-27 37.489 76.248)" fill="#f7941d"></circle><circle cx="46.66" cy="71.58" r="3.09" transform="rotate(-27 46.65 71.575)" fill="#f7941d"></circle><circle cx="55.82" cy="66.91" r="2.74" transform="rotate(-27 55.833 66.908)" fill="#f7941d"></circle><circle cx="23.83" cy="94.76" r="3.77" transform="rotate(-27 23.838 94.756)" fill="#f7941d"></circle><circle cx="32.99" cy="90.09" r="3.43" transform="rotate(-27 33 90.083)" fill="#f7941d"></circle><circle cx="42.16" cy="85.42" r="3.09" transform="rotate(-27 42.161 85.41)" fill="#f7941d"></circle><circle cx="51.33" cy="80.75" r="2.74" transform="rotate(-27 51.323 80.737)" fill="#f7941d"></circle><circle cx="60.49" cy="76.08" r="2.4" transform="rotate(-27 60.48 76.085)" fill="#f7941d"></circle><circle cx="32.75" cy="144.48" r="5.14" transform="rotate(-9 32.736 144.489)" fill="#d7df23"></circle><circle cx="31.14" cy="134.32" r="4.8" transform="rotate(-9 31.17 134.33)" fill="#d7df23"></circle><circle cx="29.53" cy="124.15" r="4.46" transform="rotate(-9 29.542 124.165)" fill="#d7df23"></circle><circle cx="27.92" cy="113.99" r="4.12" transform="rotate(-9 27.912 114)" fill="#d7df23"></circle><circle cx="26.32" cy="103.83" r="3.77" transform="rotate(-9 26.283 103.836)" fill="#d7df23"></circle><circle cx="42.91" cy="142.87" r="4.8" transform="rotate(-9 42.9 142.86)" fill="#d7df23"></circle><circle cx="41.3" cy="132.71" r="4.46" transform="rotate(-9 41.335 132.7)" fill="#d7df23"></circle><circle cx="39.7" cy="122.55" r="4.12" transform="matrix(.99 -.16 .16 .99 -18.68 7.72)" fill="#d7df23"></circle><circle cx="38.09" cy="112.38" r="3.77" transform="rotate(-9 38.077 112.372)" fill="#d7df23"></circle><circle cx="36.48" cy="102.22" r="3.43" transform="rotate(-9 36.448 102.207)" fill="#d7df23"></circle><circle cx="53.07" cy="141.26" r="4.46" transform="rotate(-9 53.065 141.23)" fill="#d7df23"></circle><circle cx="51.47" cy="131.1" r="4.12" transform="rotate(-9 51.494 131.135)" fill="#d7df23"></circle><circle cx="49.86" cy="120.94" r="3.77" transform="rotate(-9 49.87 120.907)" fill="#d7df23"></circle><circle cx="48.25" cy="110.77" r="3.43" transform="rotate(-9 48.236 110.806)" fill="#d7df23"></circle><circle cx="46.64" cy="100.61" r="3.09" transform="rotate(-9 46.607 100.642)" fill="#d7df23"></circle><circle cx="63.24" cy="139.65" r="4.12" transform="rotate(-9 63.225 139.665)" fill="#d7df23"></circle><circle cx="61.63" cy="129.49" r="3.77" transform="rotate(-9 61.595 129.5)" fill="#d7df23"></circle><circle cx="60.02" cy="119.33" r="3.43" transform="rotate(-9 60.03 119.341)" fill="#d7df23"></circle><circle cx="58.41" cy="109.17" r="3.09" transform="rotate(-9 58.4 109.177)" fill="#d7df23"></circle><circle cx="56.8" cy="99" r="2.74" transform="matrix(.99 -.16 .16 .99 -14.79 10.1)" fill="#d7df23"></circle><circle cx="73.4" cy="138.04" r="3.77" transform="rotate(-9 73.389 138.036)" fill="#d7df23"></circle><circle cx="71.79" cy="127.88" r="3.43" transform="rotate(-9 71.76 127.871)" fill="#d7df23"></circle><circle cx="70.18" cy="117.72" r="3.09" transform="rotate(-9 70.194 117.712)" fill="#d7df23"></circle><circle cx="68.57" cy="107.56" r="2.74" transform="rotate(-9 68.565 107.548)" fill="#d7df23"></circle><circle cx="66.96" cy="97.4" r="2.4" transform="rotate(-9 66.936 97.383)" fill="#d7df23"></circle><circle cx="123.44" cy="144.91" r="5.14" transform="rotate(-81 123.437 144.912)" fill="#27aae1"></circle><circle cx="113.28" cy="143.3" r="4.8" transform="rotate(-81 113.28 143.303)" fill="#27aae1"></circle><circle cx="103.12" cy="141.69" r="4.46" transform="matrix(.16 -.99 .99 .16 -52.96 221.38)" fill="#27aae1"></circle><circle cx="92.96" cy="140.09" r="4.12" transform="rotate(-81 92.952 140.086)" fill="#27aae1"></circle><circle cx="82.79" cy="138.48" r="3.77" transform="rotate(-81 82.795 138.477)" fill="#27aae1"></circle><circle cx="125.05" cy="134.75" r="4.8" transform="rotate(-81 125.046 134.754)" fill="#27aae1"></circle><circle cx="114.89" cy="133.14" r="4.46" transform="rotate(-81 114.888 133.145)" fill="#27aae1"></circle><circle cx="104.73" cy="131.53" r="4.12" transform="rotate(-81 104.724 131.531)" fill="#27aae1"></circle><circle cx="94.57" cy="129.92" r="3.77" transform="rotate(-81 94.566 129.922)" fill="#27aae1"></circle><circle cx="84.4" cy="128.31" r="3.43" transform="rotate(-81 84.408 128.314)" fill="#27aae1"></circle><circle cx="126.66" cy="124.59" r="4.46" transform="rotate(-81 126.66 124.59)" fill="#27aae1"></circle><circle cx="116.5" cy="122.98" r="4.12" transform="rotate(-81 116.497 122.987)" fill="#27aae1"></circle><circle cx="106.34" cy="121.37" r="3.77" transform="rotate(-81 106.333 121.373)" fill="#27aae1"></circle><circle cx="96.17" cy="119.76" r="3.43" transform="rotate(-81 96.175 119.764)" fill="#27aae1"></circle><circle cx="86.01" cy="118.15" r="3.09" transform="rotate(-81 86.017 118.156)" fill="#27aae1"></circle><circle cx="128.27" cy="114.43" r="4.12" transform="rotate(-81 128.269 114.432)" fill="#27aae1"></circle><circle cx="118.11" cy="112.82" r="3.77" transform="matrix(.16 -.99 .99 .16 -11.8 211.82)" fill="#27aae1"></circle><circle cx="107.94" cy="111.21" r="3.43" transform="rotate(-81 107.947 111.21)" fill="#27aae1"></circle><circle cx="97.78" cy="109.6" r="3.09" transform="rotate(-81 97.784 109.606)" fill="#27aae1"></circle><circle cx="87.62" cy="107.99" r="2.74" transform="rotate(-81 87.62 107.993)" fill="#27aae1"></circle><circle cx="129.88" cy="104.27" r="3.77" transform="rotate(-81 129.871 104.269)" fill="#27aae1"></circle><circle cx="119.72" cy="102.66" r="3.43" transform="rotate(-81 119.713 102.66)" fill="#27aae1"></circle><circle cx="109.55" cy="101.05" r="3.09" transform="rotate(-81 109.555 101.051)" fill="#27aae1"></circle><circle cx="99.39" cy="99.44" r="2.74" transform="rotate(-81 99.397 99.443)" fill="#27aae1"></circle><circle cx="89.23" cy="97.83" r="2.4" transform="rotate(-81 89.229 97.835)" fill="#27aae1"></circle><circle cx="151.88" cy="58.8" r="5.14" transform="rotate(-63 151.875 58.805)" fill="#662d91"></circle><circle cx="147.21" cy="67.97" r="4.8" transform="rotate(-63 147.206 67.963)" fill="#662d91"></circle><circle cx="142.54" cy="77.13" r="4.46" transform="rotate(-63 142.54 77.135)" fill="#662d91"></circle><circle cx="137.87" cy="86.3" r="4.11" transform="rotate(-63 137.865 86.302)" fill="#662d91"></circle><circle cx="133.2" cy="95.47" r="3.77" transform="rotate(-63 133.19 95.469)" fill="#662d91"></circle><circle cx="142.71" cy="54.13" r="4.8" transform="rotate(-63 142.709 54.13)" fill="#662d91"></circle><circle cx="138.04" cy="63.3" r="4.46" transform="rotate(-63 138.042 63.302)" fill="#662d91"></circle><circle cx="133.37" cy="72.46" r="4.12" transform="rotate(-63 133.373 72.46)" fill="#662d91"></circle><circle cx="128.7" cy="81.63" r="3.77" transform="rotate(-63 128.698 81.627)" fill="#662d91"></circle><circle cx="124.03" cy="90.8" r="3.43" transform="rotate(-63 124.032 90.799)" fill="#662d91"></circle><circle cx="133.54" cy="49.46" r="4.46" transform="rotate(-63 133.55 49.46)" fill="#662d91"></circle><circle cx="128.87" cy="58.63" r="4.11" transform="rotate(-63 128.876 58.627)" fill="#662d91"></circle><circle cx="124.2" cy="67.79" r="3.77" transform="rotate(-63 124.2 67.794)" fill="#662d91"></circle><circle cx="119.53" cy="76.96" r="3.43" transform="rotate(-63 119.54 76.958)" fill="#662d91"></circle><circle cx="114.86" cy="86.13" r="3.09" transform="rotate(-63 114.865 86.124)" fill="#662d91"></circle><circle cx="124.38" cy="44.79" r="4.12" transform="rotate(-63 124.378 44.794)" fill="#662d91"></circle><circle cx="119.71" cy="53.96" r="3.77" transform="rotate(-63 119.709 53.953)" fill="#662d91"></circle><circle cx="115.04" cy="63.12" r="3.43" transform="rotate(-63 115.034 63.12)" fill="#662d91"></circle><circle cx="110.37" cy="72.29" r="3.09" transform="rotate(-63 110.368 72.291)" fill="#662d91"></circle><circle cx="105.7" cy="81.45" r="2.74" transform="rotate(-63 105.693 81.458)" fill="#662d91"></circle><circle cx="115.21" cy="40.12" r="3.77" transform="rotate(-63 115.212 40.12)" fill="#662d91"></circle><circle cx="110.54" cy="49.29" r="3.43" transform="rotate(-63 110.537 49.286)" fill="#662d91"></circle><circle cx="105.87" cy="58.45" r="3.09" transform="rotate(-63 105.876 58.45)" fill="#662d91"></circle><circle cx="101.2" cy="67.62" r="2.74" transform="rotate(-63 101.201 67.616)" fill="#662d91"></circle><circle cx="96.53" cy="76.78" r="2.4" transform="rotate(-63 96.535 76.788)" fill="#662d91"></circle></g></g></svg></svg> <!----></g></g> <g transform="translate(67,0)"><g data-gra="path-name" fill-rule="" class="tp-name iconsvg-namesvg" transform="translate(0,0)"><g transform="scale(1)"><g><path d="M20.57-36.56L20.57-36.56Q24.26-34.8 23.73-34.63L23.73-34.63Q22.32-34.1 20.57-31.64L20.57-31.64Q20.04-31.11 19.86-30.76L19.86-30.76 34.98-30.76 37.27-33.05 40.96-29.71 19.34-29.71Q15.47-23.73 11.6-20.21L11.6-20.21 11.07-20.74Q16.35-27.42 20.57-36.56ZM4.92-35.16L5.27-35.68Q9.67-34.28 10.72-32.7L10.72-32.7Q12.13-29.88 9.32-28.83L9.32-28.83Q9.14-29 8.61-30.06L8.61-30.06Q7.38-33.4 4.92-35.16L4.92-35.16ZM13.01-29.71L13.01-29.71 13.54-29.53Q8.44-14.24 7.56-9.84L7.56-9.84Q7.38-7.56 7.73-2.99L7.73-2.99Q8.09 1.93 7.21 2.64L7.21 2.64Q4.92 2.81 4.22 1.23L4.22 1.23Q4.22 0.7 4.75-2.11L4.75-2.11Q5.63-6.5 5.27-7.21L5.27-7.21Q4.75-8.61 1.41-8.96L1.41-8.96 1.41-9.32Q5.27-8.79 5.45-10.37L5.45-10.37Q6.86-13.71 9.67-21.09L9.67-21.09Q13.01-30.23 13.01-29.71ZM1.05-26.02L1.41-26.54Q5.45-24.79 6.68-23.2L6.68-23.2Q8.26-20.57 5.27-18.98L5.27-18.98Q4.75-18.98 4.22-20.39L4.22-20.39Q3.34-23.73 1.05-26.02L1.05-26.02ZM32.87-24.61L34.8-26.37 37.44-23.91Q37.44-23.91 37.09-23.73L37.09-23.73Q35.86-23.03 35.68-22.32L35.68-22.32Q35.51-21.45 35.51-18.98L35.51-18.98Q35.33-16.35 35.33-15.47L35.33-15.47 37.44-15.47 39.38-17.93 42.89-14.77 42.71-14.59 35.33-14.59 34.8-4.92 36.56-4.92 38.5-7.21 42.01-4.22 41.66-3.87 34.8-3.87Q34.45 0.53 32.87 2.46L32.87 2.46Q32.17 3.52 28.65 4.92L28.65 4.92Q29 2.11 23.55 0.88L23.55 0.88 23.55 0.35Q29.36 1.05 29.88 0.7L29.88 0.7Q31.64 0 31.99-3.87L31.99-3.87 16.7-3.87Q16.7-4.04 16.17-3.34L16.17-3.34Q15.64-2.81 15.47-2.81L15.47-2.81Q15.12-2.81 12.83-4.92L12.83-4.92Q13.89-5.45 14.24-6.33L14.24-6.33Q14.59-6.86 15.29-11.95L15.29-11.95Q15.64-13.71 15.82-14.59L15.82-14.59 12.48-14.59 11.6-14.24 10.9-15.47 16.17-15.47 18.11-26.37 20.39-24.61 32.87-24.61ZM19.86-22.68L19.86-22.68 18.63-15.47 32.7-15.47 33.22-23.55 21.09-23.55Q19.86-23.55 19.86-22.68ZM23.03-22.85L23.38-23.2Q26.37-21.62 27.6-20.04L27.6-20.04Q28.65-17.4 26.37-16.35L26.37-16.35Q25.66-16 25.49-17.4L25.49-17.4Q24.96-20.74 23.03-22.85L23.03-22.85ZM32.7-14.59L18.46-14.59 16.52-4.92 31.99-4.92Q32.7-7.91 32.7-14.59L32.7-14.59ZM22.15-13.18L22.68-13.54Q25.84-11.6 26.89-9.32L26.89-9.32Q27.42-6.68 24.96-5.98L24.96-5.98Q24.43-6.15 24.43-7.73L24.43-7.73Q24.26-11.25 22.15-13.18L22.15-13.18ZM65.04-37.27L65.04-37.27Q69.61-35.68 69.61-35.51L69.61-35.51Q69.61-35.33 68.73-34.45L68.73-34.45Q68.2-33.93 68.2-33.93L68.2-33.93 68.03-29.71 81.39-29.71 83.67-32.34 87.54-29 87.54-28.65 67.85-28.65 67.68-22.85 79.45-22.85Q79.63-22.85 80.33-23.91L80.33-23.91Q81.04-24.79 81.04-24.79L81.04-24.79Q83.32-23.2 84.73-21.8L84.73-21.8Q84.73-21.8 83.85-21.09L83.85-21.09Q82.97-20.39 82.97-20.21L82.97-20.21Q82.97-14.24 83.14-6.33L83.14-6.33Q83.14 1.76 82.97 2.29L82.97 2.29Q82.27 4.22 78.22 5.45L78.22 5.45Q78.22 5.45 78.05 5.27L78.05 5.27Q77.87 2.81 73.13 1.23L73.13 1.23 73.13 0.7Q79.8 1.58 80.16 1.05L80.16 1.05Q80.68-2.99 80.16-21.8L80.16-21.8 72.07-21.8Q74.88-19.69 74.71-19.51L74.71-19.51Q74.71-19.34 74.18-19.16L74.18-19.16Q73.48-18.98 72.77-18.28L72.77-18.28Q71.72-16.88 69.26-14.24L69.26-14.24Q68.73-13.54 68.38-13.18L68.38-13.18 73.13-13.18 74.88-15.29 78.4-12.48 78.22-12.13 67.68-12.13 67.68-6.86 73.3-6.86 75.41-8.96 78.4-5.98 78.22-5.8 67.68-5.8 67.68 3.16Q66.97 3.87 65.04 4.22L65.04 4.22 65.04-5.8 58.01-5.8 56.25-5.45 55.2-6.86 65.04-6.86 65.04-12.13 58.18-12.13 56.43-11.95 55.55-13.18 62.4-13.18Q62.23-13.36 62.05-14.24L62.05-14.24Q61.7-17.93 58.71-20.21L58.71-20.21 59.24-20.74Q64.51-17.75 65.04-15.64L65.04-15.64Q65.04-14.41 63.81-13.18L63.81-13.18 67.32-13.18Q69.79-17.4 71.54-21.8L71.54-21.8 55.37-21.8Q53.26-22.15 53.61-19.86L53.61-19.86Q53.61-18.81 53.26 4.04L53.26 4.04Q51.5 5.1 50.1 5.27L50.1 5.27Q50.8-8.44 50.8-24.43L50.8-24.43 54.14-22.85 64.69-22.85 65.04-28.65 48.52-28.65 46.76-28.3 45.7-29.71 65.04-29.71Q65.21-35.51 65.04-37.27ZM108.63-37.09L108.98-37.27Q111.62-36.56 113.2-34.8L113.2-34.8Q113.91-33.75 112.68-31.99L112.68-31.99Q112.68-32.17 112.5-31.82L112.5-31.82 126.74-31.82 128.5-33.93 132.54-30.06Q132.54-29.88 132.01-29.88L132.01-29.88Q128.85-30.06 124.63-26.02L124.63-26.02 124.28-26.19 127.09-30.94 97.38-30.94Q97.56-25.14 95.45-24.26L95.45-24.26Q92.29-23.73 92.81-26.19L92.81-26.19Q92.99-26.37 93.34-26.54L93.34-26.54Q96.33-28.3 96.68-33.22L96.68-33.22 97.21-33.22Q97.38-32.7 97.38-31.82L97.38-31.82 110.92-31.82Q110.92-31.99 110.74-32.7L110.74-32.7Q110.57-34.98 108.63-37.09L108.63-37.09ZM108.28-29.36L108.46-29.88Q112.68-28.48 113.38-26.89L113.38-26.89Q113.38-25.14 112.15-24.26L112.15-24.26Q111.09-23.55 110.74-25.14L110.74-25.14Q110.74-25.14 110.74-25.31L110.74-25.31Q110.21-27.77 108.28-29.36L108.28-29.36ZM119.53-29.18L119.53-29.18 123.05-26.37Q122.7-26.19 122.34-26.19L122.34-26.19Q121.11-26.19 119.36-25.14L119.36-25.14Q118.3-24.43 115.66-22.68L115.66-22.68Q110.92-19.51 107.75-17.75L107.75-17.75Q108.98-17.75 110.04-17.58L110.04-17.58Q115.31-17.58 119.53-18.46L119.53-18.46Q120.76-19.16 121.29-23.2L121.29-23.2 121.64-23.2Q121.29-18.98 123.22-18.46L123.22-18.46Q123.4-18.46 123.4-18.46L123.4-18.46Q122.87-16.35 119.88-15.82L119.88-15.82Q118.13-15.64 110.92-15.64L110.92-15.64 114.26-14.24 113.03-13.18 113.03-11.07 121.64-11.07Q121.82-11.07 122.34-11.95L122.34-11.95Q122.87-12.83 123.05-13.01L123.05-13.01 126.39-10.37Q126.39-10.37 125.86-10.02L125.86-10.02Q124.98-9.67 124.98-9.49L124.98-9.49 124.98-4.22Q123.57-3.16 122.34-3.34L122.34-3.34 122.34-4.39 113.03-4.39 113.03 1.05 123.57 0.88Q123.22 0.35 119.18-1.76L119.18-1.76Q118.13-2.29 117.6-2.64L117.6-2.64 117.6-2.99Q124.8-1.58 128.32 0.88L128.32 0.88Q129.9 1.93 129.55 3.87L129.55 3.87Q128.85 6.5 127.62 5.27L127.62 5.27Q127.44 5.1 127.09 4.75L127.09 4.75Q125.68 2.64 124.63 1.93L124.63 1.93Q99.67 2.81 94.22 4.57L94.22 4.57Q94.04 4.57 94.04 4.57L94.04 4.57 92.64 1.23Q95.98 1.23 100.37 1.23L100.37 1.23Q106.88 1.41 110.39 1.05L110.39 1.05 110.39-4.39 101.78-4.39 101.78-2.46Q100.2-1.23 99.14-1.76L99.14-1.76 99.32-13.01 102.3-11.07 110.39-11.07 110.39-15.64Q107.05-15.82 104.77-16.35L104.77-16.35Q97.38-12.83 91.23-11.6L91.23-11.6 90.88-12.13Q97.73-14.24 103.71-17.58L103.71-17.58 103.71-27.42 107.58-25.84 106.17-24.43 106.17-18.81Q114.61-23.73 119.53-29.18ZM98.96-25.49L98.96-25.49 99.49-25.49Q99.84-21.97 98.96-19.16L98.96-19.16Q98.26-17.05 96.33-17.05L96.33-17.05Q93.69-17.4 95.1-19.16L95.1-19.16Q95.27-19.34 95.8-19.86L95.8-19.86Q98.61-21.45 98.96-25.49ZM123.05-23.73L123.22-24.26Q128.32-22.5 130.61-20.39L130.61-20.39Q131.48-19.16 130.78-17.05L130.78-17.05Q129.9-15.12 129.02-16.7L129.02-16.7Q128.85-17.05 128.5-17.75L128.5-17.75Q126.91-21.09 123.05-23.73L123.05-23.73ZM110.39-5.45L110.39-10.2 103.18-10.2Q101.6-10.37 101.78-9.14L101.78-9.14 101.78-5.45 110.39-5.45ZM122.34-10.2L113.03-10.2 113.03-5.45 122.34-5.45 122.34-10.2ZM142.03-37.27L142.03-37.27 145.55-35.33Q145.55-34.98 145.02-34.8L145.02-34.8Q144.32-34.45 143.96-33.93L143.96-33.93Q143.79-33.22 142.91-31.11L142.91-31.11Q142.21-29.88 142.03-29.18L142.03-29.18 148.01-29.18 149.77-31.29 152.93-28.3 152.75-28.13 146.07-28.13 146.07-19.16 148.54-19.16 150.29-21.27 153.81-18.46 153.63-18.11 146.07-18.11 146.07-2.81 149.59-3.52 149.59-15.29 153.11-13.89 151.7-12.48 151.7-8.09Q156.97-13.54 159.08-18.98L159.08-18.98 161.89-17.23Q161.72-17.05 161.37-16.88L161.37-16.88Q160.66-16.7 160.14-16.17L160.14-16.17Q159.61-15.29 158.73-14.24L158.73-14.24 165.76-14.24Q165.59-14.41 165.41-14.94L165.41-14.94Q164.71-16.88 163.13-18.28L163.13-18.28 163.48-18.63Q169.28-16.88 167.17-14.24L167.17-14.24 172.09-14.24 173.85-16.35 177.19-13.54 177.19-13.18 166.82-13.18 166.82-9.32 170.51-9.32 172.44-11.43 175.08-8.79 175.08-8.44 166.82-8.44 166.82-4.39 170.51-4.39 172.27-6.33 175.25-3.69 175.08-3.52 166.82-3.52 166.82 1.23 172.97 1.23 174.9-0.88 178.24 2.11 178.07 2.29 158.38 2.29 158.38 4.57Q157.5 5.45 155.74 5.63L155.74 5.63 156.27-10.9Q154.86-9.67 151.7-7.21L151.7-7.21 151.88 0.53Q151.35 1.23 149.59 1.93L149.59 1.93 149.59-2.64Q141.5-0.53 138.34 1.05L138.34 1.05 136.93-1.05 138.52-2.46 138.52-15.47 142.03-13.89 140.8-12.48 140.8-1.93 143.79-2.46 143.79-18.11 138.87-18.11 137.11-17.75 136.23-19.16 143.79-19.16 143.79-28.13 141.68-28.13Q139.57-24.08 136.76-20.57L136.76-20.57 136.05-20.74Q139.75-27.25 142.03-37.27ZM158.73-31.99L158.73-37.44 162.42-36.04 161.19-34.98 161.19-31.99 167.52-31.99 167.52-37.27 171.21-35.68 169.98-34.63 169.98-31.99 172.79-31.99 174.38-34.1 177.54-31.11 177.36-30.94 169.98-30.94 169.98-29.18Q169.45-28.3 167.52-28.13L167.52-28.13 167.52-30.94 161.19-30.94 161.19-28.83Q160.31-27.95 158.73-28.13L158.73-28.13 158.73-30.94 155.04-30.94 153.11-30.41 152.05-31.99 158.73-31.99ZM172.09-26.72L172.97-27.77 175.61-26.02 174.38-24.79 174.38-19.51Q173.67-18.81 172.27-18.63L172.27-18.63 172.27-20.04 167.87-20.04 167.87-19.16Q166.64-18.63 165.94-18.81L165.94-18.81 165.94-27.6 168.22-26.72 172.09-26.72ZM154.34-18.11L154.34-27.6 156.45-26.72 160.31-26.72 161.37-27.77 163.83-25.66 162.6-24.79 162.6-19.86Q161.72-18.98 160.49-19.16L160.49-19.16 160.49-20.04 156.45-20.04 156.45-18.63Q155.92-18.11 154.34-18.11L154.34-18.11ZM160.49-21.09L160.49-25.66 157.68-25.66Q156.27-26.02 156.45-23.91L156.45-23.91 156.45-21.09 160.49-21.09ZM172.44-21.09L172.44-25.66 169.45-25.66Q167.87-25.66 167.87-23.55L167.87-23.55 167.87-21.09 172.44-21.09ZM164.53-13.18L160.31-13.18Q158.03-13.36 158.38-11.78L158.38-11.78 158.38-9.32 164.53-9.32 164.53-13.18ZM164.53-4.39L164.53-8.44 158.38-8.44 158.38-4.39 164.53-4.39ZM164.53-3.52L158.38-3.52 158.38 1.23 164.53 1.23 164.53-3.52Z" transform="translate(-1.0499999523162842, 37.439998626708984)"></path></g> <!----> <!----> <!----> <!----> <!----> <!----> <!----></g></g> <g data-gra="path-slogan" fill-rule="" class="tp-slogan iconsvg-slogansvg" fill="#ed1c24" transform="translate(41.345001220703125,49.1019401550293)"><!----> <!----> <g transform="scale(1, 1)"><g transform="scale(1)"><path d="M2.06-5.06L6.56-5.06L6.56-8.58L7.73-8.58L7.73 0L6.56 0L6.56-3.98L2.06-3.98L2.06 0L0.89 0L0.89-8.58L2.06-8.58L2.06-5.06ZM15.19 0L14.34-2.48L10.88-2.48L9.98 0L8.81 0L12.05-8.58L13.36-8.58L16.45 0L15.19 0ZM12.61-7.31L11.25-3.52L13.92-3.52L12.66-7.31L12.61-7.31ZM17.67-8.58L18.84-8.58L18.84 0L17.67 0L17.67-8.58ZM22.22-8.58L26.53-1.64L26.53-8.58L27.66-8.58L27.66 0L26.34 0L21.98-6.94L21.94-6.94L21.94 0L20.81 0L20.81-8.58L22.22-8.58ZM35.11 0L34.27-2.48L30.80-2.48L29.91 0L28.73 0L31.97-8.58L33.28-8.58L36.38 0L35.11 0ZM32.53-7.31L31.17-3.52L33.84-3.52L32.58-7.31L32.53-7.31ZM38.81-8.58L43.13-1.64L43.13-8.58L44.25-8.58L44.25 0L42.94 0L38.58-6.94L38.53-6.94L38.53 0L37.41 0L37.41-8.58L38.81-8.58ZM57.61-8.58L57.61 0L56.48 0L56.48-5.06Q56.48-5.77 56.48-7.22L56.48-7.22L54.05 0L52.88 0L50.48-7.22L50.44-7.22Q50.44-6.70 50.48-5.67L50.48-5.67Q50.48-5.16 50.48-5.06L50.48-5.06L50.48 0L49.31 0L49.31-8.58L51-8.58L53.48-1.31L55.92-8.58L57.61-8.58ZM59.48-8.58L60.66-8.58L60.66 0L59.48 0L59.48-8.58ZM69.05-3.61L66.42-3.61L66.42-4.59L70.17-4.59L70.17 0L69.42 0L69.14-1.08Q68.16 0.09 66.33 0.14L66.33 0.14Q64.59 0.14 63.66-0.75L63.66-0.75Q62.25-2.06 62.30-4.36L62.30-4.36Q62.63-8.63 66.38-8.81L66.38-8.81Q69.56-8.63 70.03-6L70.03-6L68.91-6Q68.44-7.78 66.33-7.83L66.33-7.83Q63.66-7.64 63.52-4.31L63.52-4.31Q63.52-0.75 66.38-0.75L66.38-0.75Q67.41-0.75 68.16-1.31L68.16-1.31Q69.09-2.06 69.05-3.61L69.05-3.61ZM77.63-3.19L77.63-8.58L78.80-8.58L78.80-3.05Q78.66 0.05 75.28 0.14L75.28 0.14Q72.14 0.05 72-2.86L72-2.86L72-8.58L73.17-8.58L73.17-3.19Q73.22-0.84 75.33-0.80L75.33-0.80Q77.63-0.84 77.63-3.19L77.63-3.19ZM86.25 0L85.41-2.48L81.94-2.48L81.05 0L79.88 0L83.11-8.58L84.42-8.58L87.52 0L86.25 0ZM83.67-7.31L82.31-3.52L84.98-3.52L83.72-7.31L83.67-7.31ZM89.95-8.58L94.27-1.64L94.27-8.58L95.39-8.58L95.39 0L94.08 0L89.72-6.94L89.67-6.94L89.67 0L88.55 0L88.55-8.58L89.95-8.58Z" transform="translate(-0.890625, 8.8125)"></path></g></g></g></g></g><defs v-gra="od"></defs></svg>